{"title":"Ra One (2011) Hindi 1/5 MC DVDSCR XviD AC3 ESubs TDT","uid":6781094,"size":938658837,"categoryP":"video","categoryS":"movies","magnet":"?xt=urn:btih:c8296398d8f402edd6c547e634e4e01cd9c81ee3&amp;dn=Ra+One+%282011%29+Hindi+1%2F5+MC+DVDSCR+XviD+AC3+ESubs+TDT&amp;tr=udp%3A%2F%2Ftracker.openbittorrent.com%3A80&amp;tr=udp%3A%2F%2Fopen.demonii.com%3A1337&amp;tr=udp%3A%2F%2Ftracker.coppersurfer.tk%3A6969&amp;tr=udp%3A%2F%2Fexodus.desync.com%3A6969","seeders":1,"leechers":1,"uploader":"HDvideos","files":-1,"time":1319903266,"description":"mastitorrents.com\n &lt;a href=&quot;\nhttp://mastitorrents.com/forums/index.php&quot; rel=&quot;nofollow&quot; target=&quot;_NEW&quot;&gt;\nhttp://mastitorrents.com/forums/index.php&lt;/a&gt;\n &lt;a href=&quot;\nhttp://thepiratebay.se/user/HDvideos/0/7&quot; rel=&quot;nofollow&quot; target=&quot;_NEW&quot;&gt;\nhttp://thepiratebay.se/user/HDvideos/0/7&lt;/a&gt;\n\nRa One (2011) Hindi 1/5 MC DVDSCR XviD AC3 ESubs TDT\n\nFormat : AVI\nFormat/Info : Audio Video Interleave\nFile size : 895 MiB\nDuration : 2h 34mn\nOverall bit rate : 809 Kbps\nWriting application : VirtualDubMod 1.5.10.3 | www.virtualdub-fr.org || (build 2550/release)\nWriting library : VirtualDubMod build 2550/release\nSource : Mc-Screener @ Team ICTV .. Thnx A LOT \nRipper : KINGFISHER [~TDT~].\n\nVideo\nID : 0\nFormat : MPEG-4 Visual\nFormat profile : Advanced Simple@L5\nFormat settings, BVOP : 1\nFormat settings, QPel : No\nFormat settings, GMC : No warppoints\nFormat settings, Matrix : Default (H.263)\nMuxing mode : Packed bitstream\nCodec ID : XVID\nCodec ID/Hint : XviD\nDuration : 2h 34mn\nBit rate : 672 Kbps\nWidth : 672 pixels\nHeight : 288 pixels\nDisplay aspect ratio : 2.35:1\nFrame rate : 23.976 fps\nColor space : YUV\nChroma subsampling : 4:2:0\nBit depth : 8 bits\nScan type : Progressive\nCompression mode : Lossy\nBits/(Pixel*Frame) : 0.145\nStream size : 743 MiB (83%)\nWriting library : XviD 1.2.1 (UTC 2008-12-04)\n\nAudio\nID : 1\nFormat : AC-3\nFormat/Info : Audio Coding 3\nMode extension : CM (complete main)\nCodec ID : 2000\nDuration : 2h 34mn\nBit rate mode : Constant\nBit rate : 128 Kbps\nChannel(s) : 2 channels\nChannel positions : Front: L R\nSampling rate : 48.0 KHz\nBit depth : 16 bits\nCompression mode : Lossy\nStream size : 142 MiB (16%)\nAlignment : Split accross interleaves\nInterleave, duration : 42 ms (1.00 video frame)\nInterleave, preload duration : 500 ms","torrent":{"xt":"urn:btih:c8296398d8f402edd6c547e634e4e01cd9c81ee3","amp;dn":"Ra+One+%282011%29+Hindi+1%2F5+MC+DVDSCR+XviD+AC3+ESubs+TDT","amp;tr":["udp%3A%2F%2Ftracker.openbittorrent.com%3A80","udp%3A%2F%2Fopen.demonii.com%3A1337","udp%3A%2F%2Ftracker.coppersurfer.tk%3A6969","udp%3A%2F%2Fexodus.desync.com%3A6969"],"infoHash":"c8296398d8f402edd6c547e634e4e01cd9c81ee3","infoHashBuffer":{"type":"Buffer","data":[200,41,99,152,216,244,2,237,214,197,71,230,52,228,224,28,217,200,30,227]},"announce":[],"urlList":[]}}